<svg width="140" height="140" viewBox="0 0 140 140" fill="none" xmlns="http://www.w3.org/2000/svg">
<path d="M79.8949 114.574C78.0244 114.574 76.508 113.058 76.508 111.187C76.508 109.317 78.0259 107.802 79.8963 107.805L104.859 107.846C109.53 107.846 115.504 102.191 115.601 97.5293V46.0211C115.601 44.0798 114.573 42.2838 112.899 41.3009L72.4989 17.5803C70.7825 16.5725 68.6544 16.5759 66.9412 17.589L27.0441 41.1833C25.3799 42.1675 24.3583 43.9566 24.3567 45.8901L24.3136 96.3978C26.3844 112.18 43.634 107.044 55.188 107.697C56.3192 107.76 57.3694 108.255 58.209 109.015L66.3423 116.383V60.2445C66.3423 60.1682 66.6737 59.0131 66.7444 58.8384C67.747 56.3687 71.2996 56.2564 72.6336 58.4709C72.7238 58.6193 73.119 59.5068 73.119 59.5664V131.744L55.752 115.925C54.8627 115.114 53.7318 114.61 52.5301 114.557C46.8371 114.306 40.8601 114.999 35.2822 114.572C26.3908 113.891 18.6823 106.636 17.7629 97.7526L17.8745 42.2334C17.8784 40.3015 18.9005 38.5146 20.5638 37.5318L67.0616 10.058C68.7786 9.04348 70.9116 9.04313 72.629 10.0571L119.418 37.6824C121.084 38.6662 122.107 40.4566 122.108 42.3916L122.152 97.5293C121.851 105.616 112.976 114.574 104.859 114.574H90.5177H82.7633H79.8949Z" fill="white"/>
<path d="M105.731 98.1438C105.731 99.9531 104.265 101.42 102.455 101.42C100.646 101.42 99.1792 99.9531 99.1792 98.1438V46.1845C99.1792 46.1193 99.7311 45.2152 99.8573 45.0544C101.202 43.3432 103.708 43.3432 105.053 45.0544C105.178 45.2138 105.731 46.1179 105.731 46.1845V98.1438Z" fill="white"/>
<path d="M89.3753 98.2749C89.3753 100.038 87.9457 101.468 86.1823 101.468C84.4188 101.468 82.9893 100.038 82.9893 98.2749V52.5188C82.9893 52.461 83.5272 51.6598 83.6502 51.5173C84.9611 50.0008 87.4034 50.0008 88.7144 51.5173C88.836 51.6586 89.3753 52.4598 89.3753 52.5188V98.2749Z" fill="white"/>
<path d="M50.161 69.228C50.5382 66.5587 53.7858 65.2219 55.8616 67.0787C56.1362 67.3241 56.9377 68.7385 56.9377 69.002V98.0313C56.9377 99.9026 55.4207 101.42 53.5493 101.42C51.678 101.42 50.161 99.9026 50.161 98.0313V69.228Z" fill="white"/>
<path d="M40.45 98.1427C40.45 99.952 38.9833 101.419 37.174 101.419C35.3647 101.419 33.8979 99.952 33.8979 98.1427V74.423C33.8979 74.3578 34.4498 73.4537 34.576 73.2928C35.9211 71.5817 38.4268 71.5817 39.7719 73.2928C39.8967 73.4523 40.45 74.3564 40.45 74.423V98.1427Z" fill="white"/>
</svg>
